<svg xmlns="http://www.w3.org/2000/svg" width="32" height="32" viewBox="0 0 32 32" fill="none">
  <!-- Memory chip background -->
  <rect x="4" y="6" width="24" height="20" rx="3" fill="#3b82f6" stroke="#1d4ed8" stroke-width="1" />

  <!-- Memory chip details -->
  <rect x="6" y="8" width="20" height="2" rx="0.5" fill="#93c5fd" />
  <rect x="6" y="11" width="20" height="2" rx="0.5" fill="#93c5fd" />
  <rect x="6" y="14" width="20" height="2" rx="0.5" fill="#93c5fd" />
  <rect x="6" y="17" width="20" height="2" rx="0.5" fill="#93c5fd" />
  <rect x="6" y="20" width="20" height="2" rx="0.5" fill="#93c5fd" />
  <rect x="6" y="23" width="20" height="2" rx="0.5" fill="#93c5fd" />

  <!-- Memory chip pins -->
  <rect x="2" y="9" width="2" height="1" fill="#6b7280" />
  <rect x="2" y="11" width="2" height="1" fill="#6b7280" />
  <rect x="2" y="13" width="2" height="1" fill="#6b7280" />
  <rect x="2" y="15" width="2" height="1" fill="#6b7280" />
  <rect x="2" y="17" width="2" height="1" fill="#6b7280" />
  <rect x="2" y="19" width="2" height="1" fill="#6b7280" />
  <rect x="2" y="21" width="2" height="1" fill="#6b7280" />

  <rect x="28" y="9" width="2" height="1" fill="#6b7280" />
  <rect x="28" y="11" width="2" height="1" fill="#6b7280" />
  <rect x="28" y="13" width="2" height="1" fill="#6b7280" />
  <rect x="28" y="15" width="2" height="1" fill="#6b7280" />
  <rect x="28" y="17" width="2" height="1" fill="#6b7280" />
  <rect x="28" y="19" width="2" height="1" fill="#6b7280" />
  <rect x="28" y="21" width="2" height="1" fill="#6b7280" />

  <!-- Warning symbol (leak indicator) -->
  <circle cx="24" cy="10" r="4" fill="#ef4444" stroke="#ffffff" stroke-width="1" />
  <path d="M22 8 L24 12 L26 8 Z" fill="#ffffff" />
  <circle cx="24" cy="13" r="0.5" fill="#ffffff" />

  <!-- Memory leak drops -->
  <circle cx="21" cy="27" r="1" fill="#ef4444" opacity="0.7" />
  <circle cx="19" cy="29" r="0.75" fill="#ef4444" opacity="0.5" />
  <circle cx="23" cy="29" r="0.5" fill="#ef4444" opacity="0.3" />
</svg>
